<svg xmlns="http://www.w3.org/2000/svg" viewBox="0 0 640 512"><!-- Font Awesome Free 6.4.0 by @fontawesome - https://fontawesome.com License - https://fontawesome.com/license (Commercial License) --><path d="M170.54 148.13v217.54l23.43.01 7.71 26.37 42.01-26.37h49.53V148.13H170.54zm97.75 193.93h-27.94l-27.9 17.51-5.08-17.47-11.9-.04V171.75h72.82v170.31zm-118.46-94.39H97.5c1.74-27.1 2.2-51.59 2.2-73.46h51.16s1.97-22.56-8.58-22.31h-88.5c3.49-13.12 7.87-26.66 13.12-40.67 0 0-24.07 0-32.27 21.57-3.39 8.9-13.21 43.14-30.7 78.12 5.89-.64 25.37-1.18 36.84-22.21 2.11-5.89 2.51-6.66 5.14-14.53h28.87c0 10.5-1.2 66.88-1.68 73.44H20.83c-11.74 0-15.56 23.62-15.56 23.62h65.58C66.45 321.1 42.83 363.12 0 396.34c20.49 5.85 40.91-.93 51-9.9 0 0 22.98-20.9 35.59-69.25l53.96 64.94s7.91-26.89-1.24-39.99c-7.58-8.92-28.06-33.06-36.79-41.81L87.9 311.95c4.36-13.98 6.99-27.55 7.87-40.67h61.65s-.09-23.62-7.59-23.62v.01zm412.02-1.6c20.83-25.64 44.98-58.57 44.98-58.57s-18.65-14.8-27.38-4.06c-6 8.9-36.8 48.6-36.8 48.6s-1.67-31.1-1.67-41.04h-66.67c0 75.81-.83 133.05-.83 133.05s13.1 21.66 31.77 21.66c.83-6.08.98-3.33.94-9.48h34.5v9.48h31.82v-9.48h58.57c9.83-11.22 4.14-18.93-8.29-18.93-6.33-.11-16.37.11-25.21.11-8.1 0-16.59.44-24.75.44V213.7h58.99s-.09-28.34-21.04-28.34h-37.95v-18.48h-31.82v18.48h-25.65s-10.51 .65-11.08 10.14c0 8.6-.18 130.17-.18 130.17h66.7V268.4h-36.63z"/></svg> 